<svg xmlns="http://www.w3.org/2000/svg" xmlns:xlink="http://www.w3.org/1999/xlink" width="58" zoomAndPan="magnify" viewBox="0 0 43.5 43.499999" height="58" preserveAspectRatio="xMidYMid meet" version="1.0"><path fill="#3183ff" d="M 21.898438 4.367188 C 22.003906 4.367188 22.097656 4.417969 22.21875 4.511719 C 24.269531 6.066406 26.550781 7.292969 28.984375 8.15625 C 31.257812 8.964844 33.757812 9.484375 36.410156 9.699219 L 36.414062 9.699219 C 36.589844 9.71875 36.726562 9.867188 36.730469 10.046875 C 36.785156 14.023438 36.230469 18.035156 35.066406 21.96875 C 32.996094 28.992188 28.917969 34.570312 22.945312 38.539062 C 22.074219 39.117188 21.492188 39.148438 20.628906 38.671875 C 12.800781 34.328125 8.386719 27.441406 7.136719 17.617188 C 6.835938 15.273438 6.738281 12.867188 6.835938 10.261719 C 6.847656 9.964844 7.070312 9.714844 7.371094 9.675781 C 10.226562 9.289062 13.257812 8.804688 16.140625 7.539062 C 17.9375 6.75 19.660156 5.789062 21.257812 4.683594 C 21.566406 4.46875 21.742188 4.367188 21.898438 4.367188 Z M 40.082031 9.835938 C 40.0625 9.167969 40.015625 8.457031 39.703125 7.832031 C 39.335938 7.101562 38.703125 6.605469 37.769531 6.3125 C 37.015625 6.078125 36.179688 6.011719 35.445312 5.953125 L 35.429688 5.953125 C 31.867188 5.664062 28.398438 4.425781 25.390625 2.371094 C 25.296875 2.304688 25.203125 2.242188 25.109375 2.175781 C 24.1875 1.539062 23.238281 0.875 22.078125 0.820312 C 20.773438 0.757812 19.628906 1.5 18.617188 2.160156 C 18.53125 2.214844 18.449219 2.265625 18.367188 2.324219 C 16.027344 3.824219 13.476562 4.910156 10.78125 5.550781 C 9.597656 5.828125 8.324219 6.019531 6.78125 6.140625 C 5.320312 6.261719 4.292969 6.925781 3.816406 8.058594 C 3.480469 8.851562 3.433594 9.699219 3.417969 10.574219 C 3.398438 11.242188 3.398438 11.910156 3.40625 12.5625 C 3.5 20.082031 5.074219 26.429688 8.09375 31.433594 C 9.289062 33.410156 10.773438 35.277344 12.511719 36.984375 C 14.136719 38.578125 15.984375 40.035156 18.007812 41.320312 C 19.128906 42.03125 20.347656 42.683594 21.667969 42.683594 C 21.742188 42.683594 21.820312 42.679688 21.898438 42.675781 C 23.054688 42.609375 24.089844 42.03125 25.03125 41.414062 C 27.480469 39.820312 29.722656 37.820312 31.695312 35.46875 C 33.628906 33.167969 35.261719 30.582031 36.546875 27.789062 C 39.039062 22.386719 40.261719 16.179688 40.082031 9.835938 " fill-opacity="1" fill-rule="nonzero"/><path fill="#3183ff" d="M 29.648438 18.140625 C 29.617188 18.339844 29.464844 18.496094 29.324219 18.636719 C 26.355469 21.605469 23.390625 24.578125 20.425781 27.550781 C 20.171875 27.800781 19.855469 28.070312 19.507812 27.996094 C 19.316406 27.949219 19.167969 27.804688 19.027344 27.664062 C 17.425781 26.0625 15.828125 24.464844 14.226562 22.863281 C 14.042969 22.679688 13.84375 22.460938 13.84375 22.195312 C 13.84375 21.941406 14.039062 21.730469 14.21875 21.546875 C 14.703125 21.058594 15.1875 20.570312 15.671875 20.078125 C 15.863281 19.886719 16.085938 19.675781 16.359375 19.667969 C 16.660156 19.652344 16.914062 19.886719 17.128906 20.097656 C 17.976562 20.949219 18.820312 21.796875 19.667969 22.644531 C 21.914062 20.394531 24.15625 18.144531 26.398438 15.898438 C 26.59375 15.707031 26.808594 15.503906 27.082031 15.492188 C 27.382812 15.480469 27.625 15.710938 27.839844 15.921875 C 28.308594 16.394531 28.777344 16.871094 29.246094 17.34375 C 29.464844 17.5625 29.699219 17.835938 29.648438 18.140625 Z M 34.019531 12.496094 C 34.015625 12.160156 33.757812 11.875 33.421875 11.847656 L 33.417969 11.847656 C 29.394531 11.515625 25.65625 10.308594 22.339844 7.796875 C 21.871094 7.441406 21.523438 7.652344 21.125 7.925781 C 19.859375 8.800781 18.527344 9.542969 17.125 10.160156 C 14.890625 11.140625 12.535156 11.523438 10.085938 11.851562 C 9.765625 11.894531 9.527344 12.160156 9.511719 12.484375 C 9.425781 14.59375 9.492188 16.582031 9.746094 18.566406 C 10.714844 26.175781 14.167969 31.976562 20.660156 35.582031 C 21.472656 36.03125 22.097656 35.988281 22.894531 35.457031 C 27.703125 32.265625 30.992188 27.824219 32.683594 22.082031 C 33.605469 18.96875 34.070312 15.773438 34.019531 12.496094 " fill-opacity="1" fill-rule="nonzero"/></svg>